<?xml version="1.0" standalone="no"?><!DOCTYPE svg PUBLIC "-//W3C//DTD SVG 1.1//EN" "http://www.w3.org/Graphics/SVG/1.1/DTD/svg11.dtd"><svg t="1763099174024" class="icon" viewBox="0 0 1024 1024" version="1.1" xmlns="http://www.w3.org/2000/svg" p-id="31669" xmlns:xlink="http://www.w3.org/1999/xlink" width="200" height="200"><path d="M856.711323 458.129955L788.807661 497.337532l68.026659 39.273805c63.362245 36.577339 85.066439 117.594346 48.4891 180.94713l-18.922575 32.773901c-36.577339 63.352783-117.584885 85.056978-180.94713 48.479639l-68.02666-39.273806V837.943894c0 73.154677-59.303352 132.45803-132.458029 132.458029h-37.845152c-73.154677 0-132.45803-59.303352-132.458029-132.458029v-78.405693l-67.903663 39.198116c-63.352783 36.577339-144.36033 14.873144-180.937668-48.479639l-18.922576-32.773901C30.324599 654.129994 52.028794 573.122447 115.381577 536.545108L183.28524 497.337532l-67.771205-39.131887C52.161252 421.628306 30.447596 340.62076 67.024935 277.267977l18.922575-32.773901c36.577339-63.352783 117.594346-85.066439 180.94713-48.4891l67.771205 39.131886V156.73117c0-73.154677 59.303352-132.45803 132.458029-132.45803h37.845152c73.154677 0 132.45803 59.303352 132.458029 132.45803v78.405692l67.903663-39.198115c63.352783-36.577339 144.36033-14.873144 180.937669 48.479638l18.922575 32.773901c36.577339 63.352783 14.873144 144.36033-48.479639 180.937669zM486.04645 412.185941a85.15159 85.15159 0 0 0-85.15159 85.151591 85.15159 85.15159 0 0 0 85.15159 85.15159 85.15159 85.15159 0 0 0 85.151591-85.15159 85.15159 85.15159 0 0 0-85.151591-85.151591z" fill="#B4E0FF" p-id="31670"></path></svg>