<?xml version="1.0" standalone="no"?><!DOCTYPE svg PUBLIC "-//W3C//DTD SVG 1.1//EN" "http://www.w3.org/Graphics/SVG/1.1/DTD/svg11.dtd"><svg t="1767877600377" class="icon" viewBox="0 0 1024 1024" version="1.1" xmlns="http://www.w3.org/2000/svg" p-id="21042" xmlns:xlink="http://www.w3.org/1999/xlink" width="200" height="200"><path d="M735.704615 346.978462l-1.575384-183.926154C721.92 59.076923 659.692308 34.658462 547.446154 11.815385c-152.024615-18.116923-245.76 8.664615-280.812308 158.72l7.089231 224.886153c25.6 123.273846 96.098462 194.56 211.101538 213.464616l1.575385 169.353846c-55.138462-153.993846-151.630769-214.646154-289.476923-182.350769 20.873846 186.289231 117.366154 250.486154 289.476923 193.772307l2.756923 211.495385c8.664615 20.873846 18.116923 20.873846 28.356923 0v-389.513846c136.270769-32.689231 208.738462-121.304615 218.190769-264.664615z m-32.68923-190.621539c7.483077 106.338462 5.513846 192.196923-5.513847 257.969231-40.96-103.581538-98.461538-171.716923-172.504615-205.193846 47.261538-45.686154 106.732308-63.409231 178.018462-52.775385zM343.827692 74.830769c22.055385-22.843077 55.138462-2.756923 89.403077-14.966154 20.873846-8.664615 38.203077-12.996923 63.015385-16.935384 94.523077-22.449231 162.658462-0.393846 199.68 77.587692-80.738462-8.664615-148.086154 17.723077-202.436923 78.375385-41.747692-24.812308-88.221538-39.778462-139.815385-45.686154-11.421538-1.575385-22.843077-2.756923-34.264615-2.756923 3.150769-25.6 11.027692-50.806154 24.418461-75.618462z m166.596923 502.941539l-14.178461 1.575384c-20.086154-3.938462-38.596923-8.664615-55.532308-14.178461-28.356923-11.421538-53.169231-27.569231-74.043077-48.443077-1.969231-2.756923-3.938462-5.12-5.513846-7.089231-24.024615-47.655385-39.384615-88.615385-46.08-122.486154l-2.756923-199.68 40.172308 1.575385c-1.181538 0.787692-1.575385 1.969231-1.575385 2.756923 156.750769 13.390769 264.664615 100.824615 323.741539 261.907692-40.172308 77.193846-94.523077 118.547692-164.233847 124.061539z m7.089231 334.76923c131.938462 81.526154 235.126154 52.775385 309.563077-87.04-133.907692-103.187692-237.095385-74.436923-309.563077 87.04z" fill="#F3A9C9" p-id="21043"></path></svg>